<?xml version="1.0" encoding="UTF-8" standalone="no"?>
<!-- Created with Inkscape (http://www.inkscape.org/) -->

<svg
   width="210mm"
   height="297mm"
   viewBox="0 0 210 297"
   version="1.1"
   id="svg1"
   xml:space="preserve"
   inkscape:export-filename="bitmap.png"
   inkscape:export-xdpi="96"
   inkscape:export-ydpi="96"
   xmlns:inkscape="http://www.inkscape.org/namespaces/inkscape"
   xmlns:sodipodi="http://sodipodi.sourceforge.net/DTD/sodipodi-0.dtd"
   xmlns="http://www.w3.org/2000/svg"
   xmlns:svg="http://www.w3.org/2000/svg"><sodipodi:namedview
     id="namedview1"
     pagecolor="#ffffff"
     bordercolor="#cccccc"
     borderopacity="1"
     inkscape:showpageshadow="0"
     inkscape:pageopacity="1"
     inkscape:pagecheckerboard="0"
     inkscape:deskcolor="#d1d1d1"
     inkscape:document-units="mm"
     showgrid="true"
     inkscape:zoom="5.6568543"
     inkscape:cx="272.23611"
     inkscape:cy="72.920387"
     inkscape:window-width="1366"
     inkscape:window-height="705"
     inkscape:window-x="-8"
     inkscape:window-y="-8"
     inkscape:window-maximized="1"
     inkscape:current-layer="layer1"><inkscape:grid
       id="grid1"
       units="px"
       originx="0"
       originy="0"
       spacingx="0.26458333"
       spacingy="0.26458334"
       empcolor="#0099e5"
       empopacity="0.30196078"
       color="#0099e5"
       opacity="0.14901961"
       empspacing="5"
       dotted="false"
       gridanglex="30"
       gridanglez="30"
       visible="true" /></sodipodi:namedview><defs
     id="defs1" /><g
     inkscape:label="Capa 1"
     inkscape:groupmode="layer"
     id="layer1"><g
       id="g25"><path
         style="font-variation-settings:normal;opacity:1;vector-effect:none;fill:none;fill-opacity:1;stroke:#000000;stroke-width:0.264583;stroke-linecap:butt;stroke-linejoin:miter;stroke-miterlimit:4;stroke-dasharray:none;stroke-dashoffset:0;stroke-opacity:1;-inkscape-stroke:none;stop-color:#000000;stop-opacity:1"
         d="m 44.984364,17.101742 10.715625,-7.9250964 21.16724,0.023148 10.547123,7.8694174 -10.523736,8.044813 -21.328108,0.02923 z"
         id="path1"
         sodipodi:nodetypes="ccccccc" /><path
         style="font-variation-settings:normal;vector-effect:none;fill:#008000;fill-opacity:1;stroke:#000000;stroke-width:0.223347;stroke-linecap:butt;stroke-linejoin:miter;stroke-miterlimit:4;stroke-dasharray:none;stroke-dashoffset:0;stroke-opacity:1;-inkscape-stroke:none;stop-color:#000000"
         d="m 45.444943,21.11588 0.07152,9.938845 2.002623,1.220561 2.002622,1.307743 V 30.967544 L 47.519085,29.746982 V 23.557 l 2.002622,1.394927 V 22.423623 L 45.44494,19.89532 Z"
         id="path6" /><path
         style="font-variation-settings:normal;vector-effect:none;fill:#00ff00;fill-opacity:1;stroke:#000000;stroke-width:0.223347;stroke-linecap:butt;stroke-linejoin:miter;stroke-miterlimit:4;stroke-dasharray:none;stroke-dashoffset:0;stroke-opacity:1;-inkscape-stroke:none;stop-color:#000000"
         d="m 50.994687,23.952774 -0.04687,11.404579 2.002624,1.307743 v -6.102799 l 1.9311,1.220559 0.07152,6.102801 2.18143,1.482109 0.03576,-12.467151 -2.217191,-1.133376 v 3.748864 l -2.006324,-1.629524 -0.07153,-2.441119 z"
         id="path7"
         sodipodi:nodetypes="ccccccccccccc" /><path
         style="font-variation-settings:normal;vector-effect:none;fill:#ffff00;fill-opacity:1;stroke:#000000;stroke-width:0.223347;stroke-linecap:butt;stroke-linejoin:miter;stroke-miterlimit:4;stroke-dasharray:none;stroke-dashoffset:0;stroke-opacity:1;-inkscape-stroke:none;stop-color:#000000"
         d="m 58.823196,28.614357 -0.143045,10.985041 2.074145,1.220562 0.07152,-4.79506 1.931103,1.307743 0.07152,4.795059 1.931101,1.307742 0.214566,-12.46715 z"
         id="path8" /><path
         style="font-variation-settings:normal;vector-effect:none;fill:none;fill-opacity:1;stroke:#000000;stroke-width:0.223347;stroke-linecap:butt;stroke-linejoin:miter;stroke-miterlimit:4;stroke-dasharray:none;stroke-dashoffset:0;stroke-opacity:1;-inkscape-stroke:none;stop-color:#000000"
         d="m 60.754296,31.317027 0.07152,2.877034 1.85958,1.482109 v -2.964219 z"
         id="path9" /><path
         style="font-variation-settings:normal;vector-effect:none;fill:none;fill-opacity:1;stroke:#000000;stroke-width:0.237974;stroke-linecap:butt;stroke-linejoin:miter;stroke-miterlimit:4;stroke-dasharray:none;stroke-dashoffset:0;stroke-opacity:1;-inkscape-stroke:none;stop-color:#000000"
         d="m 66.47039,31.295158 0.07635,11.867177 1.985208,-1.297972 0.07635,-3.893917 1.145312,-0.7417 2.214271,3.523069 2.137916,-1.483396 -2.366978,-2.874084 0.610834,-1.297973 0.305416,-1.668821 -0.305416,-1.57611 -0.839897,-1.112548 -1.298021,-0.370848 -1.450728,0.09271 -1.603437,0.278138 z"
         id="path10" /><path
         style="font-variation-settings:normal;vector-effect:none;fill:#ff0000;fill-opacity:1;stroke:#000000;stroke-width:0.223347;stroke-linecap:butt;stroke-linejoin:miter;stroke-miterlimit:4;stroke-dasharray:none;stroke-dashoffset:0;stroke-opacity:1;-inkscape-stroke:none;stop-color:#000000"
         d="m 74.751707,27.772445 -0.143045,11.246591 4.291336,-2.528304 -0.07153,-2.441122 -2.074144,1.220561 v -6.189983 l 2.002622,-1.394924 v -2.35394 z"
         id="path11" /><path
         style="font-variation-settings:normal;vector-effect:none;fill:#800000;fill-opacity:1;stroke:#000000;stroke-width:0.223347;stroke-linecap:butt;stroke-linejoin:miter;stroke-miterlimit:4;stroke-dasharray:none;stroke-dashoffset:0;stroke-opacity:1;-inkscape-stroke:none;stop-color:#000000"
         d="m 80.944516,23.849215 -0.143043,11.24659 6.150912,-3.66168 V 20.274719 Z"
         id="path12" /><path
         style="font-variation-settings:normal;vector-effect:none;fill:none;fill-opacity:1;stroke:#000000;stroke-width:0.223347;stroke-linecap:butt;stroke-linejoin:miter;stroke-miterlimit:4;stroke-dasharray:none;stroke-dashoffset:0;stroke-opacity:1;-inkscape-stroke:none;stop-color:#000000"
         d="m 81.874306,25.418506 v 7.148995 l 4.148289,-2.441118 v -7.58491 z"
         id="path13" /><path
         style="font-variation-settings:normal;vector-effect:none;fill:none;fill-opacity:1;stroke:#000000;stroke-width:0.237974;stroke-linecap:butt;stroke-linejoin:miter;stroke-miterlimit:4;stroke-dasharray:none;stroke-dashoffset:0;stroke-opacity:1;-inkscape-stroke:none;stop-color:#000000"
         d="m 67.653768,32.670793 -0.0135,3.94984 1.255281,-0.26223 0.971829,-0.54085 0.674882,-0.639186 0.364436,-0.671964 c 0,0 0.121478,-0.868637 0.134977,-0.934194 0.0135,-0.06557 -0.161972,-1.048921 -0.161972,-1.048921 l -0.593896,-0.295009 -1.012322,-0.163893 -0.809859,0.08194 z"
         id="path14" /><path
         style="font-variation-settings:normal;opacity:1;vector-effect:none;fill:#ff00ff;fill-opacity:1;stroke:#000000;stroke-width:0.239963;stroke-linecap:butt;stroke-linejoin:miter;stroke-miterlimit:4;stroke-dasharray:none;stroke-dashoffset:0;stroke-opacity:1;-inkscape-stroke:none;stop-color:#000000;stop-opacity:1"
         d="m 54.448768,10.57205 -0.06615,13.292002 2.31468,-0.09328 -0.15431,-6.436956 1.15734,0.09328 2.00604,6.436957 h 2.31468 l -2.08321,-6.436957 0.84871,-1.585917 0.0771,-2.145652 -0.46293,-1.585917 -1.00302,-1.585917 z"
         id="path15"
         sodipodi:nodetypes="ccccccccccccc" /><path
         style="font-variation-settings:normal;opacity:1;vector-effect:none;fill:#f9f9f9;fill-opacity:1;stroke:#000000;stroke-width:0.239963;stroke-linecap:butt;stroke-linejoin:miter;stroke-miterlimit:4;stroke-dasharray:none;stroke-dashoffset:0;stroke-opacity:1;-inkscape-stroke:none;stop-color:#000000;stop-opacity:1"
         d="m 55.539962,11.92303 v 4.104727 l 2.468859,-0.0059 c 0.531358,-0.09597 0.976713,-0.299442 1.157461,-0.833673 l 0.04403,-1.38155 -0.198397,-1.323838 C 58.634496,12.21 58.215968,11.968036 57.490692,11.956133 Z"
         id="path16"
         sodipodi:nodetypes="cccccccc" /><path
         style="font-variation-settings:normal;opacity:1;vector-effect:none;fill:#800080;fill-opacity:1;stroke:#000000;stroke-width:0.239963;stroke-linecap:butt;stroke-linejoin:miter;stroke-miterlimit:4;stroke-dasharray:none;stroke-dashoffset:0;stroke-opacity:1;-inkscape-stroke:none;stop-color:#000000;stop-opacity:1"
         d="m 63.178382,10.710271 -0.23146,13.340359 h 2.31467 c 1.153108,-0.182592 2.147351,-0.391662 2.557923,-0.69801 0.546266,-0.367439 0.928219,-1.279612 0.759767,-2.007377 l 0.0771,-8.022874 C 68.594707,12.753594 68.419061,11.791088 67.913,11.244578 67.181822,10.901621 66.203563,10.869126 65.338692,10.80356 Z"
         id="path17"
         sodipodi:nodetypes="ccccccccc" /><path
         style="font-variation-settings:normal;opacity:1;vector-effect:none;fill:none;fill-opacity:1;stroke:#000000;stroke-width:0.239963;stroke-linecap:butt;stroke-linejoin:miter;stroke-miterlimit:4;stroke-dasharray:none;stroke-dashoffset:0;stroke-opacity:1;-inkscape-stroke:none;stop-color:#000000;stop-opacity:1"
         d="m 64.270952,12.042368 -0.0136,10.554472 c 0.73269,-0.125909 1.473258,-0.196679 2.17647,-0.528934 0.562548,-0.247129 0.607474,-0.525987 1.001182,-1.153005 l 0.06736,-1.599436 c 0.06652,-1.791448 0.235387,-3.77933 -0.118679,-5.696955 -0.086,-0.388937 -0.224395,-0.944318 -0.506248,-1.176572 -0.230155,-0.327874 -0.660848,-0.488634 -1.153853,-0.597467 l -1.41849,0.03298 z"
         id="path18"
         sodipodi:nodetypes="cccccccccc" /><path
         style="font-variation-settings:normal;opacity:1;vector-effect:none;fill:#ff00ff;fill-opacity:1;stroke:#000000;stroke-width:0.239963;stroke-linecap:butt;stroke-linejoin:miter;stroke-miterlimit:4;stroke-dasharray:none;stroke-dashoffset:0;stroke-opacity:1;-inkscape-stroke:none;stop-color:#000000;stop-opacity:1"
         d="m 69.651882,10.420555 3.38257,6.530579 -3.27345,6.662511 2.12774,-0.131931 2.34596,-5.07934 2.07319,5.145305 h 2.18229 l -3.27344,-6.530579 3.27344,-6.596545 h -2.18229 l -2.12774,5.277236 -2.29141,-5.277236 z"
         id="path19"
         sodipodi:nodetypes="ccccccccccccc" /><path
         style="fill:#f9f9f9;stroke-width:0.0625"
         d="m 233.34375,131.40613 -3,-2.39758 -0.0708,-2.73865 c -0.16789,-6.49183 -0.17307,-6.97796 -0.0736,-6.91858 0.0506,0.0302 1.47436,1.05337 3.16394,2.27368 l 3.07195,2.21875 0.001,4.98437 c 6.3e-4,2.74141 -0.0199,4.9824 -0.0457,4.97998 -0.0258,-0.002 -1.39687,-1.08331 -3.04687,-2.40197 z"
         id="path20"
         transform="scale(0.26458333)" /><path
         style="fill:#f9f9f9;stroke-width:0.125"
         d="m 256.14258,134.40625 c 0.01,-1.83906 0.0519,-4.99766 0.0937,-7.0191 l 0.0762,-3.67535 1.32742,-0.85776 1.32742,-0.85776 1.40946,-0.1435 c 1.28853,-0.13119 1.56815,-0.11841 3.25898,0.14892 1.61421,0.25522 1.9737,0.35721 2.82562,0.80161 l 0.9761,0.50919 0.28352,1.6875 0.28353,1.6875 -0.26439,1.80277 c -0.24901,1.69795 -0.30028,1.86873 -0.88179,2.9375 -0.51123,0.9396 -0.83694,1.34337 -1.89413,2.34808 -1.07446,1.02111 -1.55236,1.36607 -3.01632,2.17724 -1.68235,0.93219 -1.80365,0.97759 -3.6875,1.38034 -1.07136,0.22904 -1.99011,0.41647 -2.04167,0.4165 -0.0516,4e-5 -0.0858,-1.50462 -0.0762,-3.34368 z"
         id="path21"
         transform="scale(0.26458333)" /><path
         style="fill:#808000;stroke-width:0.125"
         d="m 251.95558,150.59808 c -0.0445,-6.34457 -0.11697,-16.14956 -0.16106,-21.78886 l -0.0801,-10.25328 1.17656,-0.94633 1.17657,-0.94633 2.99749,-0.51755 c 2.15263,-0.37167 3.73435,-0.56457 5.61174,-0.68439 l 2.61425,-0.16685 2.31561,0.66386 c 1.27358,0.36512 2.35615,0.70667 2.40569,0.759 0.0496,0.0523 0.73492,0.95091 1.52306,1.99683 l 1.43297,1.90169 0.52974,2.72331 c 0.29136,1.49783 0.52731,2.86394 0.52433,3.03582 -0.003,0.17187 -0.24173,1.60625 -0.53056,3.1875 l -0.52515,2.875 -1.22357,2.59682 -1.22357,2.59683 4.38056,5.31909 c 2.49126,3.025 4.33352,5.36604 4.27148,5.42795 -0.38712,0.38632 -6.98875,4.85374 -7.06069,4.77808 -0.049,-0.0516 -1.92735,-3.01877 -4.17404,-6.59377 -2.24669,-3.575 -4.10186,-6.51746 -4.1226,-6.53881 -0.0207,-0.0213 -1.15461,0.68611 -2.51973,1.57213 l -2.48202,1.61093 -0.0903,4.74037 c -0.0497,2.60721 -0.1259,5.92666 -0.16941,7.37656 l -0.0791,2.63619 -3.13195,2.05131 c -1.72257,1.12823 -3.17094,2.06733 -3.2186,2.0869 -0.0477,0.0196 -0.12306,-5.15542 -0.16756,-11.5 z m 6.05029,-12.15309 2.63235,-0.555 1.83714,-1.02249 c 1.5663,-0.87174 2.03985,-1.2121 3.21214,-2.30865 1.24893,-1.16825 1.44089,-1.4096 2.09367,-2.63232 0.71039,-1.33063 0.72178,-1.36856 0.98919,-3.29258 l 0.27053,-1.94645 -0.33528,-2.05442 c -0.1844,-1.12992 -0.34829,-2.06562 -0.36419,-2.07931 -0.0159,-0.0137 -0.5633,-0.29295 -1.21642,-0.62057 -1.08079,-0.54213 -1.37183,-0.62597 -3.23873,-0.93285 -2.01452,-0.33115 -2.08052,-0.33403 -3.6875,-0.16101 l -1.63627,0.17617 -1.40681,0.89849 c -0.77375,0.49418 -1.53312,0.9937 -1.6875,1.11006 l -0.28069,0.21155 -0.0349,7.8822 c -0.0235,5.31199 0.007,7.88219 0.093,7.88219 0.0703,0 1.31242,-0.24975 2.76021,-0.55501 z"
         id="path22"
         transform="scale(0.26458333)" /><path
         style="fill:#f9f9f9;stroke-width:0.176777"
         d="M 309.88955,109.27805 V 96.373937 l 6.83914,-4.744096 c 3.76154,-2.609252 7.06284,-4.891119 7.33624,-5.070814 l 0.49708,-0.326719 v 13.688964 13.688968 l -7.18523,4.22703 c -3.95188,2.32487 -7.25318,4.25355 -7.33623,4.28596 -0.0831,0.0324 -0.151,-5.74792 -0.151,-12.84518 z"
         id="path23"
         transform="scale(0.26458333)" /><path
         style="fill:#ffffff;stroke-width:0.25"
         d="M 243.5,65.167469 V 45.575411 l 2.35631,-0.15478 c 2.92112,-0.191881 4.48186,0.209801 5.94864,1.530978 1.85047,1.666778 2.50166,4.055163 2.96163,10.86245 0.21556,3.190127 0.19407,5.892623 -0.10019,12.602783 l -0.3746,8.54184 -0.85934,1.33316 c -0.47265,0.733235 -1.0765,1.525475 -1.3419,1.760533 -0.8351,0.739625 -3.2247,1.659805 -5.38445,2.073435 -1.14461,0.219212 -2.33423,0.451477 -2.6436,0.516142 L 243.5,84.759525 Z"
         id="path24"
         transform="scale(0.26458333)" /><path
         style="font-variation-settings:normal;opacity:1;vector-effect:none;fill:#1a1a1a;fill-opacity:1;stroke:#000000;stroke-width:0.617662;stroke-linecap:butt;stroke-linejoin:miter;stroke-miterlimit:4;stroke-dasharray:none;stroke-dashoffset:0;stroke-opacity:1;-inkscape-stroke:none;stop-color:#000000;stop-opacity:1"
         d="m 65.73743,32.989215 -0.346131,0.568323 -0.03147,2.131217 -0.125874,3.031062 c 0,0 0,2.41538 0,2.652181 0,0.236795 -0.157328,2.604819 -0.157328,2.604819 l -0.943995,0.426242 -0.786662,0.473605 -0.692262,0.734085 -0.503465,0.710406 -0.267465,1.255049 -0.251731,1.776013 0.01579,1.681292 -7.426091,-0.615685 -2.139722,0.189454 -3.272514,-0.426243 -1.950923,-0.09471 -1.16426,-0.09471 -9.754611,-1.32609 -2.13972,-0.378881 -5.632501,-1.23137 0.03147,1.468171 1.195726,0.189453 4.059176,0.805127 3.587179,0.805126 2.139723,0.473602 0.346131,0.994569 1.825055,0.284165 0.157328,1.515533 0.409065,0.189453 0.314665,-1.562891 c 0,0 1.101327,0.04737 1.258659,0.09471 0.157328,0.04737 2.51732,0.426243 2.51732,0.426243 l 0.0944,1.847054 0.62933,0.142083 0.09442,-1.562891 0.471998,-0.236796 1.258659,0.236796 1.919455,0.426243 0.06293,1.46817 0.53493,0.142083 0.283199,1.420808 0.251732,0.757768 0.597862,0.663044 0.818129,0.04737 0.755195,-0.142083 0.597864,-0.520963 0.44053,-0.473602 0.188801,-0.378884 0.188802,-0.710406 0.503463,0.09471 0.0944,-1.08929 0.188801,-0.236795 0.377599,-0.04737 0.660797,0.236796 0.818126,0.378883 v 1.468171 1.041927 l 0.157329,0.189454 0.03147,0.947207 -0.409065,-0.09471 -0.220265,-0.04737 -0.314665,0.331522 v 0.947206 c 0,0 -0.03147,0.663044 -0.03147,0.852486 0,0.189453 -0.03147,0.663047 0,0.947207 0.03147,0.284165 0.06293,1.468173 0.06293,1.468173 h 0.283198 l 0.251733,-0.09471 0.125873,-0.473605 0.157329,-0.284166 0.377596,-0.04737 0.597864,0.236795 0.283198,0.757765 0.346132,0.09471 0.157328,-0.947207 -0.03147,-0.899845 0.06293,-1.610253 -0.157328,-0.805127 -0.125874,-0.37888 -0.283198,-0.04737 -0.346131,0.09471 v -1.373449 l 0.377596,-0.331525 0.377599,-0.710403 0.377597,-0.331524 0.72373,0.284165 0.44053,0.04737 0.377599,0.568323 0.660795,0.710405 c 0,0 0.377599,0.189454 0.597864,0.09471 0.220265,-0.09471 0.53493,-0.378884 0.660797,-0.236796 0.125874,0.142083 0.818127,0.189454 0.97546,0.236796 0.157328,0.04737 0.755196,0.473602 0.755196,0.473602 l 1.353058,-0.189425 1.384527,-0.284166 1.006926,-0.284166 0.943995,-0.568322 0.06293,-0.568326 0.786662,-0.378884 h 0.755195 l 0.440532,-0.04737 0.251731,0.852485 0.188801,1.136649 0.03147,0.615685 -0.53493,-0.09471 h -0.283246 l -0.220265,0.520944 v 0.805127 l 0.06293,0.710405 -0.06293,0.899848 c 0,0 0.03147,0.947207 0.06293,1.136649 0.03147,0.189453 0.251733,0.710405 0.251733,0.710405 h 0.409064 l 0.220265,-0.473605 0.125874,-0.426242 0.283198,-0.189454 0.692263,0.331522 0.06293,0.947207 0.440532,-0.09471 0.251731,-0.520963 -0.06293,-1.468171 -0.06293,-1.562891 0.03147,-1.041928 -0.283198,-0.236795 -0.125874,0.09471 -0.157328,0.236795 v 0.473605 h -0.440532 v -1.515532 l 0.314666,-0.899848 0.157328,-0.615684 -0.0944,-0.947207 -0.0944,-0.284166 0.818128,-0.284166 h 0.566399 l 0.44053,-0.04737 c 0,0 0.188801,0.947207 0.188801,1.136648 0,0.189454 0.346131,0.568326 0.346131,0.568326 l 1.006926,1.089287 0.597864,0.426243 c 0,0 0.72373,0.236795 0.849595,0.142083 0.125873,-0.09471 0.912529,-0.805127 0.912529,-0.805127 l 0.912528,-1.23137 0.0944,-1.089289 -0.409064,-0.947207 0.0944,-0.520964 c 0,0 0.251731,0.236796 0.251731,0.426243 0,0.189454 0.188801,0.757768 0.188801,0.757768 h 0.346132 l 0.03147,-0.663047 v -0.520964 l 0.125874,-0.189453 h 0.755195 l 0.818129,-0.236795 0.84959,-0.189454 0.7552,-0.189453 h 0.37759 l 0.0944,0.852489 0.15733,0.615684 0.31467,-0.04737 h 0.25173 v -0.568323 l -0.0629,-0.710406 0.15733,-0.284165 0.78666,0.04737 c 0,0 0.472,-0.189425 0.69226,-0.189425 0.22027,0 1.3216,-0.284165 1.3216,-0.284165 l 0.81812,-0.236796 0.34614,1.326088 c 0,0 0.15732,0.615685 0.28319,0.663047 0.12588,0.04737 0.3776,-0.615685 0.3776,-0.615685 l -0.0944,-0.520964 -0.0629,-0.568326 v -0.426245 l 0.91253,-0.189454 0.91253,-0.189425 h 0.3776 l -0.0629,-0.710405 1.00693,-0.426243 h 0.62933 c 0,0 0.59786,-0.09471 0.75519,-0.142083 0.15733,-0.04737 1.0384,-0.142083 1.0384,-0.142083 0,0 0.53493,-0.189453 0.66079,-0.189453 0.12588,0 1.44746,-0.189454 1.44746,-0.189454 l 1.22719,-0.236795 1.44746,-0.236795 1.510392,-0.284166 c 0,0 0.78667,-0.189453 0.97547,-0.189453 0.1888,0 1.32159,-0.09471 1.32159,-0.09471 l 0.91253,-0.520964 0.34613,-1.089287 0.44053,-0.947209 -0.0629,-0.805124 -0.50346,0.663044 -0.40907,0.805126 c 0,0 -0.37759,0.331522 -0.53493,0.378881 -0.15732,0.04737 -1.29012,-0.09471 -1.29012,-0.09471 l -0.8496,0.426243 -0.78666,0.189424 -1.384532,0.04737 -1.00692,0.09471 -0.72373,0.473602 c 0,0 -1.06986,0.04737 -1.22719,0.04737 -0.15733,0 -1.98239,0.473602 -1.98239,0.473602 0,0 -2.67466,0.284165 -2.83199,0.331524 -0.15733,0.04737 -2.01385,0.426243 -2.20265,0.426243 -0.1888,0 -2.98932,0.520964 -3.14665,0.520964 -0.15733,0 -2.64319,0.236795 -2.64319,0.236795 l -2.04532,0.09471 c 0,0 -1.950916,0.142082 -2.076782,0.189453 -0.125874,0.04737 -1.038394,-0.568326 -1.038394,-0.568326 0,0 -1.919456,0.09471 -2.139721,0.142083 -0.220265,0.04737 -2.171188,0.663044 -2.359986,0.615685 -0.188801,-0.04737 -3.115183,0.236795 -3.115183,0.236795 l -2.108253,0.09471 -0.0944,-1.847054 -0.157328,-1.847054 -0.125874,-1.041928 -1.16426,-1.089286 -0.755319,-0.899843 -0.377597,-0.331522 -0.07246,-1.928758 0.04451,-1.205597 -0.089,-2.478173 v -2.076308 l 0.04451,-2.277238 -0.089,-0.736755 z"
         id="path25" /></g></g></svg>
